<?xml version="1.0" encoding="utf-8"?>
<!-- Generator: Adobe Illustrator 21.0.2, SVG Export Plug-In . SVG Version: 6.00 Build 0)  -->
<svg version="1.1" id="Calque_1" xmlns="http://www.w3.org/2000/svg" xmlns:xlink="http://www.w3.org/1999/xlink" x="0px" y="0px"
	 viewBox="0 0 80 80" style="enable-background:new 0 0 80 80;" xml:space="preserve">
<style type="text/css">
	.st0{fill:none;stroke:#64DC0F;stroke-linecap:round;stroke-linejoin:round;stroke-miterlimit:10;}
</style>
<g>
	<path class="st0" d="M32.7,62c1.7-1.8,2.2-4.2,4.1-5.8c0.6-0.5,1.4-0.9,2-1.4c0.3-0.3,0.6-0.8,1-1c1.1-0.6,2.7,0.1,3.9,0.1
		c1.5,0,2.9-0.4,4.4-0.8c1.4-0.4,2.8-0.3,4-1.2c1.4-1.1,3.2-4.4,3.3-6.2c2.7,0.3,5.7,0.5,8.2-0.8c1.3-0.7,2.6-1.5,3.9-2.1
		c1.1-0.5,1.7-0.9,2.2-2.1c1-2.5,1.6-5.8,1.6-8.5c0-2.3-2.1-4.3-3.9-5.5c-0.6-0.4-1-0.4-1.4-0.9c-0.9-1.1-1-2.8-2.1-3.9
		c-1-1.1-2.4-0.7-3.5-1.5c-0.6-0.4-1-1-1.6-1.3c-0.8-0.5-1.6-0.7-2.4-1.2c-1.1-0.7-1.9-1.8-3.4-1.8c-1.6,0-2.8,1-4.3,0.2
		c-1.1-0.6-2.3-1-3.5-1.3c-0.7-0.2-1.5-0.3-2.2-0.3c-0.7,0.1-1.5,0.5-2.2,0.5c-1.2,0-2.2-0.9-3.3-1.1c-0.9-0.2-1.5,0.2-2.4,0.2
		c-0.7,0-1.5-0.3-2.2-0.4c-1.3-0.1-2.2,0.9-3.4,0.9c-1.5,0-2.5-0.8-4,0.1c-1.1,0.7-2.1,1.9-3.1,2.8c-0.4,0.4-0.9,1.2-1.3,1.6
		c-0.5,0.4-1.2,0.3-1.8,0.5c-2.4,0.7-3,3.2-4.5,4.8c-0.7,0.8-1.9,1-2.9,1.6c-1.3,0.8-1.8,1.8-2,3.3c-0.2,1.4-0.5,2.7-0.7,4.1
		c-0.2,1.5-0.5,2-1.4,3.3C6,39.4,7,42.6,8.2,45.4c0.6,1.4,1.4,2.6,2.2,3.8c0.4,0.6,0.7,1,1.3,1.3c0.5,0.3,1.3,0.3,1.8,0.6
		c0.9,0.6,0.9,1.9,1.2,2.9c0.5,1.6,1.3,2.8,3,3.3c0.8,0.2,1.7,0.3,2.6,0.5c0.8,0.3,1.5,0.7,2.3,0.7c0.7,0,1.4-0.3,2.1,0.1
		c0.6,0.3,1,0.8,1.6,1.2c1.4,0.7,1.8,1.2,1.4,2.9c-0.2,0.9-0.9,2.5,0.2,3.1c1.2,0.6,2-0.7,2.4-1.5C30.8,63.1,31.8,62.8,32.7,62
		c0,0-0.1,0.1-0.2,0.3C32.5,62.2,32.6,62.1,32.7,62C33.7,61,32,62.7,32.7,62z"/>
	<path class="st0" d="M8.7,46.5c0-1.7,0.6-2.7,1.3-4.2c0.6-1.2,0.6-2.8,1.6-3.8"/>
	<path class="st0" d="M13.4,51.2c1,0.2,1.7-0.3,2.7-0.1c1.2,0.2,2.1-0.2,3.3-0.3c2.1-0.2,4.4,0.2,6,1.7c0.8,0.8,1.2,1.9,1.9,2.8
		c0.7,1.1,1.7,2,2.5,3c0.6,0.7,1,1.8,1.9,2.2c1.2,0.5,2.1-0.6,2.8-1.5"/>
	<path class="st0" d="M19.4,54.8c-0.2-1.6-1.9-3.6-3.4-3.8"/>
	<path class="st0" d="M21.9,54.1c0.3,1.2,1.5,2,2,3.2c0.5,1.1,1.4,2.2,2.4,2.6c0.9,0.4,1.8,0.2,2.3-0.8c0.6-1.2-0.5-2.7-1.2-3.6"/>
	<path class="st0" d="M35.1,58.4c0.8-1.5-0.9-2-1.9-2.5c-1.5-0.9-2.5-2.4-4.1-3"/>
	<path class="st0" d="M20.4,22.6c-1.6,0.6-1.8,1.9-2,3.4c-0.2,2.2-0.5,4.1,0.7,6.1c0.8,1.3,1.9,2.1,3,2.9c0.9,0.7,2.3,1.8,1.6,2.9
		c-0.4,0.6-0.5,0.8-1.1,1.1c-0.6,0.3-1.1,0.8-1.7,1.1c-1.2,0.7-3,0.3-4.2-0.2c-1.7-0.7-1.9-2-2.5-3.5c-0.7-1.8-1.6-3.2-1.5-5.2"/>
	<path class="st0" d="M12.8,31.2"/>
	<path class="st0" d="M18.3,29.5c-0.3-1.7,0.6-2.3,1.8-3.2c1.4-1,2.7-2.3,4.3-2.8"/>
	<path class="st0" d="M18.2,29.2c0.2,1.5-1,3.6-2.7,3.8"/>
	<path class="st0" d="M16.7,40c1.4,0.5,3,1.3,3.8,2.6c0.8,1.2,0.2,2.6-0.1,3.9"/>
	<path class="st0" d="M26.6,54.1c-0.9-1.6-2.3-4.1-1.4-6c0.5-1,1.6-1.6,2.7-1.4c1.4,0.3,1.3,1.4,1.6,2.6"/>
	<path class="st0" d="M16.3,43.4c-1.4,1.2-0.3,4,0.5,5.3c1,1.7,3,2.1,4.8,2.1"/>
	<path class="st0" d="M30.5,30.8c-1.4-1.4-3,0.4-4.3,1.1c-1.5,0.7-2.3,1.4-2.5,3.2c-0.1,1.5,0.4,3.5,1.5,4.6c0.7,0.7,1.4,1,1.9,1.9
		c0.5,0.9,0.8,1.7,1.6,2.4c1.2,1.1,2.8,2.3,4.5,2.5c1.3,0.2,3.5-0.1,4.2-1.4c0.7-1.2,0.2-3,0.6-4.3c0.5-1.7,1.6-3.1,3.1-3.9"/>
	<path class="st0" d="M32.3,51.9c0.7-2.1-0.6-5.8-2.5-7c-1.1-0.7-2.2-1.5-3.6-1.3c-1.1,0.2-1.5,1.2-2.2,2"/>
	<path class="st0" d="M52.4,51.4c-2-0.5-2.1-2.5-1.6-4.3"/>
	<path class="st0" d="M36,52.1c1.1-0.6,2-1.2,3.3-1.3c1.3-0.1,2.5,0.1,3.8-0.1c1.1-0.2,2.1-0.6,3.1,0c0.8,0.5,1.4,1.6,1.5,2.5"/>
	<path class="st0" d="M39.1,48c-0.2,0.7,0.7,1.9,1.3,2.2c0.8,0.6,1.1,0.6,2,0.5"/>
	<path class="st0" d="M55.3,46.2c0.2-1.4,0-2.1-1.1-3c-0.8-0.6-1.8-1.2-2.8-1.1c-2.4,0.4-4.2,3.5-7,1.9c-1.9-1.2-1.3-3.1-0.6-4.8
		c0.4-1.1,0.4-2.4,1-3.5c0.6-1.1,1.9-1.9,3-2.4"/>
	<path class="st0" d="M40,44.6c0.9-0.3,1.5-0.9,2.4-1c1-0.1,2.1,0.3,3,0.9c1.8,1.2,2.1,2.5,2.5,4.4"/>
	<path class="st0" d="M24,30.6c0.7-1.5,0.9-2.9,2.4-3.8c1.6-0.9,3.4-0.9,5.2-0.8"/>
	<path class="st0" d="M27.5,26.4c0.8-0.9,0.9-2.9,0.6-4c-0.5-1.7-2.6-2.6-4-3.2"/>
	<path class="st0" d="M42.9,32.3c-2-0.1-2.9-2.7-2.2-4.4c0.8-2,3.4-4.2,1.6-6.5c-0.8-1-2.1-0.9-3.2-1.1c-1.4-0.2-2.5-0.5-3.9-0.4
		c-2.4,0.2-5.4,0.5-7.3,2.2"/>
	<path class="st0" d="M37.1,36.5c0-2.4,2.8-4.4,4.9-4.3c2.4,0.1,3.9,1.7,2.6,4"/>
	<path class="st0" d="M37.4,20c-1.7-0.8-1.1-2.7,0.3-3.3c1.8-0.7,3.7,0.1,5.2,1.2c1.2,0.9,3,1.9,3.8,3.3c1.2,2,0.3,4.8-0.4,6.8
		c0.8-2.9,4-4.4,6.7-3.9c1.2,0.2,2.9,0.8,3.5,2c0.8,1.5,0,3.7-0.9,5"/>
	<path class="st0" d="M38.9,38.7c-0.6,1-1.9,2.2-3.2,1.8c-1.3-0.4-1.8-2.2-2.3-3.3c-0.6-1.3-1.5-2.6-0.4-3.9c0.9-1.1,2.4-1,3.4-1.8"
		/>
	<path class="st0" d="M33,33.3c-0.3-1.9,0-4.2,1.4-5.7c1.3-1.3,3.3-1.4,4.7-2.6"/>
	<path class="st0" d="M35.3,27c1-0.8,3.5-5,0.8-5.1"/>
	<path class="st0" d="M29.8,28.1c1.7,0,3.6,0.8,3.2,2.9"/>
	<path class="st0" d="M49.2,16.6c0.8,1,1.4,3.4,1.4,4.7"/>
	<path class="st0" d="M55.5,25c-0.8-0.8-1.3-1.1-1.5-2.3c-0.1-0.9-0.1-2.3,0.4-3"/>
	<path class="st0" d="M60.4,20.4c-1.5-0.2-2.9,0.6-3.7,1.9"/>
	<path class="st0" d="M45.9,30.6c1.2,0.2,3.3,0.1,4.5-0.7c0.8-0.5,0.9-1.3,1.2-2.2"/>
	<path class="st0" d="M48.3,30.6c1.4-0.1,3.6,0.1,4.8,1.2c0.9,0.8,0.7,2.3,0.5,3.4c-0.5,2.7-4.2,4.5-6.7,4.6"/>
	<path class="st0" d="M52.8,36.9c0.9-0.9,1.8-1.4,3-1.8c1.4-0.4,2.9,0.4,4.1,0.9c2.4,1.1,5.6,2.9,7.9,0.5"/>
	<path class="st0" d="M70.7,36.4c-0.7-3.3-5.5-4.1-8.3-3.3"/>
	<path class="st0" d="M56.4,29.3c1.8-0.8,3-1.8,5-0.7c1.6,0.9,2.9,2.3,3.6,4.1"/>
	<path class="st0" d="M60.9,23.8c-0.1,0.9,0.4,1.7,0.6,2.5c0.2,1,0.1,2,0.9,2.8c1.3,1.4,3.6,1.2,5.1,0.3"/>
	<path class="st0" d="M59.1,31.5c-0.9,2.5,1.2,4.8,3.1,5.6"/>
	<path class="st0" d="M57.4,45.8c1.9,0,2.2-1.7,2.8-2.9c0.5-1,2.7-1.5,2.6-2.7"/>
	<path class="st0" d="M8.4,36.1c0.4-0.4,1.6-1.9,2.1-2.2"/>
	<path class="st0" d="M40.5,15.2c0.4,0.4,0.8,1,0.8,1.6"/>
	<path class="st0" d="M29.9,14.7c-0.6,0.6-0.6,1.3-1,2c-0.4,0.6-1.1,1-1.3,1.7"/>
</g>
</svg>
